# xmcd CD Database Entry
#
# Track frame offsets:
# 150
# 24618
# 40980
# 69300
# 86608
# 111473
# 135843
# 153443
# 173453
# 190970
# 212153
# 239695
# 264580
# 288988
#
# Disc length: 4094 seconds
#
# Revision: 3
# Processed by: cddbd v1.4PL0 Copyright (c) Steve Scherf et al.
# Submitted via: tcd 2.0b
#
DISCID=c40ffc0e
DTITLE=Mantronix - Musc Madness Plus
DYEAR=1900
DGENRE=
TTITLE0=Bassline
TTITLE1=Needle To The Groove
TTITLE2=Hardcore Hip-Hop
TTITLE3=Get Stupid Fresh Part 1
TTITLE4=Fresh Is The Word
TTITLE5=Musical Madness
TTITLE6=We Control The Dice
TTITLE7=Listen To The Bass Of Get Stupid Fresh Part 2
TTITLE8=Ladies UK Remix
TTITLE9=Big Band B-Boy
TTITLE10=Who is it?
TTITLE11=Electronix Energy Of...
TTITLE12=Scream
TTITLE13=Mega Mix
EXTD=
EXTT0=
EXTT1=
EXTT2=
EXTT3=
EXTT4=
EXTT5=
EXTT6=
EXTT7=
EXTT8=
EXTT9=
EXTT10=
EXTT11=
EXTT12=
EXTT13=
PLAYORDER=
